<svg height="422pt" viewBox="-45 0 422 422" width="422pt" xmlns="http://www.w3.org/2000/svg"><path d="m203.136719 187.609375c30.636719-22.902344 71.796875-25.894531 105.425781-7.660156l24.15625 13.152343.027344-150.851562-30.824219-16.792969c-28.796875-15.621093-64.050781-13.058593-90.28125 6.566407-30.597656 22.902343-71.726563 25.894531-105.316406 7.660156l-23.953125-13.148438v150.851563l30.640625 16.789062c28.742187 15.625 63.953125 13.058594 90.125-6.566406zm0 0"/><path d="m36.371094 0v408h-29.371094c-3.867188 0-7 3.132812-7 7s3.132812 7 7 7h90.601562c3.863282 0 7-3.132812 7-7s-3.136718-7-7-7h-29.230468v-408zm0 0"/></svg>