<?xml version="1.0" encoding="iso-8859-1"?>
<!-- Generator: Adobe Illustrator 19.0.0, SVG Export Plug-In . SVG Version: 6.00 Build 0)  -->
<svg xmlns="http://www.w3.org/2000/svg" xmlns:xlink="http://www.w3.org/1999/xlink" version="1.1" id="Layer_1" x="0px" y="0px" viewBox="0 0 498.185 498.185" style="enable-background:new 0 0 498.185 498.185;" xml:space="preserve" width="512" height="512">
<g>
	<path d="M454.714,346.894l5.68,3.85c6.85,4.65,16.18,2.86,20.83-3.99c4.65-6.86,2.86-16.19-3.99-20.84l-5.68-3.85   c-18.73-12.71-41.92-16.26-63.6-9.74c-0.11,0.03-0.22,0.07-0.33,0.1c-87.142,28.418-52.355,17.495-120.858,38.068   c-1.78,0.534-3.716,0.04-5.017-1.287l-17.725-18.091c-6.96-7.1-16.65-11.17-26.59-11.17h-36.387v-30.329h22.067   c8.077,0,15.027-6.207,15.407-14.275c0.406-8.614-6.458-15.725-14.983-15.725H148.98c-8.077,0-15.027,6.207-15.407,14.275   c-0.406,8.614,6.458,15.725,14.983,15.725h22.491v30.329h-46.243c-1.9-16.13-12.79-30.15-28.3-35.8l-38.15-13.88   c-22.582-8.217-47.515,3.393-55.73,25.99c-8.2,22.53,3.46,47.52,25.99,55.72l66.49,24.21v32.01c0,41.239,33.431,74.67,74.67,74.67   h112.792c27.32,0,52.462-14.909,65.568-38.88l0.29-0.53l40.975-91.802c0.576-1.291,1.677-2.28,3.021-2.718   c13.974-4.551,9.122-2.969,24.324-7.931C429.664,337.173,443.497,339.286,454.714,346.894z M30.815,306.514   c2.532-6.98,10.252-10.619,17.28-8.06l38.14,13.88c5.31,1.94,8.87,7.03,8.87,12.67v19.25l-56.23-20.47   C31.885,321.244,28.275,313.494,30.815,306.514z"/>
	<path d="M434.648,432.498c0,15.766,12.781,28.547,28.547,28.547s28.547-12.781,28.547-28.547c0-12.171-17.013-33.223-24.771-42.191   c-1.992-2.302-5.56-2.302-7.551,0C451.661,399.274,434.648,420.326,434.648,432.498z"/>
	<path d="M277.495,237.724h191.57c22.44,0,36.42-24.34,25.12-43.73l-95.79-164.25c-11.22-19.23-39.01-19.23-50.23,0l-95.78,164.25   C241.075,213.384,255.055,237.724,277.495,237.724z M358.285,83.214c0-8.29,6.71-15,15-15c8.28,0,15,6.71,15,15v63.02   c0,8.28-6.72,15-15,15c-8.29,0-15-6.72-15-15V83.214z M358.285,195.604c0-8.29,6.71-15,15-15c8.28,0,15,6.71,15,15v2.04   c0,8.28-6.72,15-15,15c-8.29,0-15-6.72-15-15V195.604z"/>
</g>















</svg>
