<?xml version="1.0" encoding="iso-8859-1"?>
<!-- Generator: Adobe Illustrator 18.1.1, SVG Export Plug-In . SVG Version: 6.00 Build 0)  -->
<svg version="1.1" id="Capa_1" xmlns="http://www.w3.org/2000/svg" xmlns:xlink="http://www.w3.org/1999/xlink" x="0px" y="0px"
	 viewBox="0 0 25.625 25.625" style="enable-background:new 0 0 25.625 25.625;" xml:space="preserve">
<g>
	<path style="fill:#030104;" d="M22.079,17.835c-1.548-1.324-3.119-2.126-4.648-0.804l-0.913,0.799
		c-0.668,0.58-1.91,3.29-6.712-2.234C5.005,10.079,7.862,9.22,8.531,8.645l0.918-0.8c1.521-1.325,0.947-2.993-0.15-4.71l-0.662-1.04
		C7.535,0.382,6.335-0.743,4.81,0.58L3.986,1.3C3.312,1.791,1.428,3.387,0.971,6.419c-0.55,3.638,1.185,7.804,5.16,12.375
		c3.97,4.573,7.857,6.87,11.539,6.83c3.06-0.033,4.908-1.675,5.486-2.272l0.827-0.721c1.521-1.322,0.576-2.668-0.973-3.995
		L22.079,17.835z"/>
</g>
<g>
</g>
<g>
</g>
<g>
</g>
<g>
</g>
<g>
</g>
<g>
</g>
<g>
</g>
<g>
</g>
<g>
</g>
<g>
</g>
<g>
</g>
<g>
</g>
<g>
</g>
<g>
</g>
<g>
</g>
</svg>
