<?xml version="1.0" encoding="iso-8859-1"?>
<!-- Generator: Adobe Illustrator 19.0.0, SVG Export Plug-In . SVG Version: 6.00 Build 0)  -->
<svg version="1.1" id="Layer_1" xmlns="http://www.w3.org/2000/svg" xmlns:xlink="http://www.w3.org/1999/xlink" x="0px" y="0px"
	 viewBox="0 0 512 512" style="enable-background:new 0 0 512 512;" xml:space="preserve">
<g>
	<g>
		<path d="M473.803,82.95l-26.876-52.676c-5.625-11.022-19.118-15.401-30.143-9.776c-11.023,5.624-15.399,19.12-9.776,30.143
			l18.309,35.886c-29.304,9.73-50.507,37.381-50.507,69.91v54.951c0,9.281,7.524,16.806,16.806,16.806h39.82v56.296
			c0,24.99-20.33,45.32-45.319,45.32h-27.279V41.29C358.837,18.523,340.316,0,317.549,0H119.39
			C90.703,0,67.364,23.338,67.364,52.025v378.068c-18.113,4.368-31.613,20.699-31.613,40.134v24.967
			c0,9.281,7.524,16.805,16.805,16.805h321.091c9.281,0,16.806-7.524,16.806-16.805v-24.967c0-19.435-13.502-35.766-31.615-40.134
			v-55.471h27.279c49.699,0,90.134-40.434,90.134-90.135V93.133C476.25,89.592,475.411,86.102,473.803,82.95z M287.787,167.31
			H138.416c-7.735,0-14.005-6.27-14.005-14.005V71.661c0-7.735,6.27-14.005,14.005-14.005h149.371
			c7.735,0,14.005,6.27,14.005,14.005v81.645h0C301.792,161.04,295.522,167.31,287.787,167.31z"/>
	</g>
</g>
<g>
</g>
<g>
</g>
<g>
</g>
<g>
</g>
<g>
</g>
<g>
</g>
<g>
</g>
<g>
</g>
<g>
</g>
<g>
</g>
<g>
</g>
<g>
</g>
<g>
</g>
<g>
</g>
<g>
</g>
</svg>
