<svg fill="#000000" xmlns="http://www.w3.org/2000/svg"  viewBox="0 0 50 50" width="500px" height="500px"><path d="M 8.5 17 C 3.8174243 17 0 20.817424 0 25.5 C 0 30.182576 3.8174243 34 8.5 34 C 10.595762 34 12.515529 33.23149 14 31.966797 C 15.484471 33.23149 17.404238 34 19.5 34 C 21.595762 34 23.515529 33.23149 25 31.966797 C 26.484471 33.23149 28.404238 34 30.5 34 C 32.595762 34 34.515529 33.23149 36 31.966797 C 37.484471 33.23149 39.404238 34 41.5 34 C 46.182576 34 50 30.182576 50 25.5 C 50 20.817424 46.182576 17 41.5 17 C 39.404238 17 37.484471 17.76851 36 19.033203 C 34.515529 17.76851 32.595762 17 30.5 17 C 28.404238 17 26.484471 17.76851 25 19.033203 C 23.515529 17.76851 21.595762 17 19.5 17 C 17.404238 17 15.484471 17.76851 14 19.033203 C 12.515529 17.76851 10.595762 17 8.5 17 z M 8.5 19 C 10.081244 19 11.526032 19.558701 12.650391 20.490234 C 11.617928 21.897403 11 23.627137 11 25.5 C 11 27.372863 11.617928 29.102597 12.650391 30.509766 C 11.526032 31.441299 10.081244 32 8.5 32 C 4.8983045 32 2 29.101696 2 25.5 C 2 21.898304 4.8983045 19 8.5 19 z M 19.5 19 C 21.081244 19 22.526032 19.558701 23.650391 20.490234 C 22.617928 21.897403 22 23.627137 22 25.5 C 22 27.372863 22.617928 29.102597 23.650391 30.509766 C 22.526032 31.441299 21.081244 32 19.5 32 C 17.918756 32 16.473968 31.441299 15.349609 30.509766 C 16.382072 29.102597 17 27.372863 17 25.5 C 17 23.627137 16.382072 21.897403 15.349609 20.490234 C 16.473968 19.558701 17.918756 19 19.5 19 z M 30.5 19 C 32.081244 19 33.526032 19.558701 34.650391 20.490234 C 33.617928 21.897403 33 23.627137 33 25.5 C 33 27.372863 33.617928 29.102597 34.650391 30.509766 C 33.526032 31.441299 32.081244 32 30.5 32 C 28.918756 32 27.473968 31.441299 26.349609 30.509766 C 27.382072 29.102597 28 27.372863 28 25.5 C 28 23.627137 27.382072 21.897403 26.349609 20.490234 C 27.473968 19.558701 28.918756 19 30.5 19 z M 41.5 19 C 45.101696 19 48 21.898304 48 25.5 C 48 29.101696 45.101696 32 41.5 32 C 39.918756 32 38.473968 31.441299 37.349609 30.509766 C 38.382072 29.102597 39 27.372863 39 25.5 C 39 23.627137 38.382072 21.897403 37.349609 20.490234 C 38.473968 19.558701 39.918756 19 41.5 19 z M 14 22.037109 C 14.630533 23.039258 15 24.223357 15 25.5 C 15 26.776643 14.630533 27.960742 14 28.962891 C 13.369467 27.960742 13 26.776643 13 25.5 C 13 24.223357 13.369467 23.039258 14 22.037109 z M 25 22.037109 C 25.630533 23.039258 26 24.223357 26 25.5 C 26 26.776643 25.630533 27.960742 25 28.962891 C 24.369467 27.960742 24 26.776643 24 25.5 C 24 24.223357 24.369467 23.039258 25 22.037109 z M 36 22.037109 C 36.630533 23.039258 37 24.223357 37 25.5 C 37 26.776643 36.630533 27.960742 36 28.962891 C 35.369467 27.960742 35 26.776643 35 25.5 C 35 24.223357 35.369467 23.039258 36 22.037109 z"/></svg>