<?xml version="1.0" encoding="UTF-8"?>
<svg xmlns="http://www.w3.org/2000/svg" xmlns:xlink="http://www.w3.org/1999/xlink" viewBox="0 0 480 480" width="480px" height="480px">
<g id="surface11542260">
<path style=" stroke:none;fill-rule:nonzero;fill:rgb(0%,0%,0%);fill-opacity:1;" d="M 414.691406 150.558594 C 402.660156 143.761719 390.011719 138.261719 377.21875 133.238281 C 319.949219 112.351562 252.628906 105.070312 188.660156 113.328125 C 129.710938 121.921875 72.441406 136.808594 27.511719 180.199219 C 6.03125 201.410156 -6.761719 233.300781 3.75 263.898438 C 17.460938 301.140625 54.019531 325.910156 86.621094 340.320312 C 183.03125 381.761719 314.171875 380.308594 407.539062 332.871094 C 439.519531 315.699219 475.320312 287.210938 479.730469 246.410156 C 483.53125 202.371094 446.980469 169.351562 414.691406 150.558594 Z M 198.769531 167.320312 C 206.828125 150.46875 221.128906 130.679688 240.898438 130.359375 C 267.019531 130.160156 292.210938 132.691406 316.601562 137.300781 C 317.519531 137.480469 318.441406 137.640625 319.351562 137.828125 C 321.941406 138.339844 324.511719 138.910156 327.078125 139.460938 C 340.578125 142.480469 353.671875 146.21875 366.230469 150.621094 C 367 151.121094 367.699219 151.710938 368.199219 152.601562 C 369.421875 155.378906 366.980469 157.179688 365.609375 158.980469 C 334.128906 185.46875 298.089844 200.191406 261.28125 213.109375 C 242.570312 218.019531 223.710938 226.851562 202.878906 221.941406 C 198.011719 220.628906 193.601562 217.199219 190.871094 212.121094 C 185.691406 196.75 192.691406 180.730469 198.769531 167.320312 Z M 71.480469 305.011719 C 69.609375 306.898438 67.761719 307.078125 65.941406 306.480469 C 48.398438 294.980469 30.519531 278.730469 22.660156 257.390625 C 21.78125 254.820312 21.25 252.25 20.808594 249.699219 C 20.671875 248.871094 20.519531 248.03125 20.410156 247.191406 C 20.109375 244.679688 19.960938 242.179688 20.039062 239.71875 C 20.039062 239.429688 20.070312 239.140625 20.070312 238.859375 C 20.921875 221.289062 30.640625 205.210938 41.398438 194.589844 C 75.210938 161.929688 116.890625 147.210938 159.03125 138.691406 C 160.761719 138.691406 162.53125 138.898438 163.328125 140.511719 L 162.71875 142.960938 C 122.730469 191.839844 96.421875 248.589844 71.480469 305.011719 Z M 275.730469 323.820312 C 267.988281 336.730469 255.941406 348.011719 241.410156 349.949219 C 240.839844 349.949219 240.289062 350 239.71875 350 C 234.308594 350 228.941406 349.828125 223.578125 349.628906 C 220.449219 349.5 217.328125 349.328125 214.210938 349.128906 C 207.851562 348.738281 201.539062 348.210938 195.28125 347.53125 C 189.738281 346.921875 184.21875 346.25 178.75 345.410156 C 175.070312 344.851562 171.421875 344.230469 167.789062 343.570312 C 162.910156 342.691406 158.089844 341.660156 153.28125 340.609375 C 139.621094 337.570312 126.371094 333.839844 113.691406 329.359375 C 113.070312 328.851562 112.488281 328.28125 112.101562 327.578125 C 111.339844 325.289062 112.410156 323.160156 113.921875 321.691406 C 147.53125 292.410156 187.53125 278.839844 227.070312 264.609375 C 241.820312 260.03125 257.488281 255.121094 274.058594 257.421875 C 280.898438 258.398438 287.738281 263.480469 290.179688 270.351562 C 293.820312 290.628906 283.941406 307.46875 275.730469 323.820312 Z M 459.890625 241.179688 C 459.808594 244.121094 459.488281 247.109375 458.871094 250.171875 C 458.628906 251.269531 458.300781 252.339844 458 253.421875 C 457.699219 254.519531 457.398438 255.628906 457.050781 256.699219 C 448.019531 283.449219 420.898438 302.988281 398.460938 315.039062 C 376.96875 325.960938 352.628906 334.441406 326.691406 340.351562 C 324.601562 340.671875 322.550781 341.121094 320.421875 341.339844 C 319.199219 341.179688 317.230469 341.5 316.921875 339.539062 L 317.371094 337.25 C 345.050781 303.71875 366.03125 266.109375 384.441406 228 C 392.949219 210.828125 400.871094 193.171875 408.160156 175.828125 C 409.21875 174.519531 410.289062 173.871094 411.511719 173.378906 C 412.679688 173.488281 413.730469 173.921875 414.800781 174.289062 C 428.460938 183.539062 446.21875 198.378906 454.851562 217.308594 C 454.988281 217.621094 455.128906 217.941406 455.261719 218.25 C 455.988281 219.910156 456.640625 221.609375 457.210938 223.339844 C 457.980469 225.738281 458.691406 228.148438 459.128906 230.648438 C 459.191406 230.96875 459.191406 231.300781 459.25 231.609375 C 459.671875 234.28125 459.890625 237 459.890625 239.78125 C 459.921875 240.238281 459.898438 240.710938 459.890625 241.179688 Z M 459.890625 241.179688 "/>
</g>
</svg>
