<?xml version="1.0" encoding="UTF-8"?>
<svg xmlns="http://www.w3.org/2000/svg" xmlns:xlink="http://www.w3.org/1999/xlink" viewBox="0 0 480 480" width="480px" height="480px">
<g id="surface11547971">
<path style=" stroke:none;fill-rule:evenodd;fill:rgb(0%,0%,0%);fill-opacity:1;" d="M 52.710938 101.550781 C 101.671875 81.71875 182.449219 79.140625 217.539062 80.460938 L 240 109.300781 L 262.46875 80.460938 C 297.558594 79.140625 378.339844 81.710938 427.289062 101.550781 C 420.53125 114.390625 391.121094 132.648438 374.960938 136.710938 C 374.039062 111.480469 338.378906 106.21875 304.171875 106.21875 L 239.988281 450.398438 L 175.820312 106.210938 C 141.570312 106.210938 105.910156 111.46875 104.988281 136.699219 C 88.851562 132.648438 59.460938 114.390625 52.710938 101.550781 Z M 52.710938 101.550781 "/>
<path style=" stroke:none;fill-rule:evenodd;fill:rgb(0%,0%,0%);fill-opacity:1;" d="M 30 67.339844 L 42.53125 85.730469 C 90.058594 69.050781 146.46875 61.03125 206 59.230469 C 228.53125 58.539062 251.46875 58.539062 273.980469 59.230469 C 333.511719 61.019531 389.929688 69.039062 437.460938 85.730469 L 450 67.339844 C 393.871094 48.320312 334.230469 41.980469 274.679688 40.441406 C 251.609375 39.851562 228.378906 39.851562 205.351562 40.441406 C 145.75 41.980469 86.140625 48.320312 30 67.339844 Z M 30 67.339844 "/>
</g>
</svg>
