<?xml version="1.0" encoding="UTF-8"?>
<svg xmlns="http://www.w3.org/2000/svg" xmlns:xlink="http://www.w3.org/1999/xlink" viewBox="0 0 480 480" width="480px" height="480px">
<g id="surface11545128">
<path style=" stroke:none;fill-rule:evenodd;fill:rgb(0%,0%,0%);fill-opacity:1;" d="M 240 90 C 350.398438 90 420 144.261719 420 240 C 420 335.738281 357.949219 390 240 390 C 122.050781 390 60 335.851562 60 240 C 60 144.148438 129.601562 90 240 90 Z M 240 60 C 376.378906 60 460 123.75 460 240 C 460 356.25 385.710938 420 240 420 C 94.289062 420 20 356.390625 20 240 C 20 123.609375 103.621094 60 240 60 Z M 240 60 "/>
<path style=" stroke:none;fill-rule:evenodd;fill:rgb(0%,0%,0%);fill-opacity:1;" d="M 240 320 C 207.738281 251.171875 176.75 245.398438 70 210 C 61.171875 206.988281 55.019531 201.601562 49.410156 197.648438 L 70.589844 144.710938 C 76.429688 147.109375 81.121094 154.789062 90 160 C 98.460938 165.160156 124.640625 174.621094 140 180 C 191.128906 197.910156 221.910156 221.949219 240 260 Z M 240 320 C 272.261719 251.171875 303.25 245.398438 410 210 C 417.261719 207.378906 423.878906 204.71875 430.589844 197.648438 L 409.410156 144.710938 C 404.25 150.828125 398.199219 155.460938 390 160 C 381.539062 165.160156 355.359375 174.621094 340 180 C 288.871094 197.910156 258.089844 221.949219 240 260 Z M 240 320 "/>
<path style=" stroke:none;fill-rule:evenodd;fill:rgb(0%,0%,0%);fill-opacity:1;" d="M 79.53125 320 L 50 300 C 50 300 23.941406 206.320312 60 170 C 120.109375 189.980469 242.730469 240.859375 240 320 C 216.480469 265.351562 179.28125 250.488281 179.28125 250.488281 C 139.210938 230.828125 105.289062 221.570312 69.988281 209.980469 L 63.089844 207.019531 C 61.820312 213.519531 51.300781 272.949219 79.53125 320 Z M 79.53125 320 "/>
<path style=" stroke:none;fill-rule:evenodd;fill:rgb(0%,0%,0%);fill-opacity:1;" d="M 400.511719 320 L 430.039062 300 C 430.039062 300 456.109375 206.320312 420.039062 170 C 359.941406 189.980469 237.308594 240.859375 240.050781 320 C 263.570312 265.351562 300.769531 250.488281 300.769531 250.488281 C 340.839844 230.828125 374.761719 221.570312 410.058594 209.980469 L 416.960938 207.019531 C 418.230469 213.519531 428.738281 272.949219 400.511719 320 Z M 400.511719 320 "/>
<path style=" stroke:none;fill-rule:evenodd;fill:rgb(0%,0%,0%);fill-opacity:1;" d="M 83.980469 155.699219 C 83.980469 155.699219 79.070312 152.351562 80 140 C 80.929688 127.648438 120.441406 80 240 80 C 359.558594 80 399.820312 140 399.820312 140 C 400.378906 146.769531 399.101562 152.058594 396.410156 156.179688 C 393.929688 154.460938 361.058594 89.820312 240 90 C 118.78125 90.359375 86.679688 153.929688 83.980469 155.699219 Z M 83.980469 155.699219 "/>
<path style=" stroke:none;fill-rule:evenodd;fill:rgb(0%,0%,0%);fill-opacity:1;" d="M 27.839844 300.128906 C 25.960938 294.121094 24.609375 287.191406 23.261719 280 L 49.960938 300.128906 C 71.289062 365.269531 130.53125 410.25 239.960938 410.128906 C 348.519531 410 408.398438 365 430 300 L 456.738281 280.011719 C 455.371094 287.261719 453.808594 294.128906 451.820312 300.121094 L 452.078125 300.121094 C 429.449219 378.109375 358.230469 420.121094 239.960938 420.121094 C 121.660156 420.121094 50.429688 378.191406 27.828125 300.121094 L 27.839844 300.121094 Z M 27.839844 300.128906 "/>
</g>
</svg>
