<?xml version="1.0" encoding="UTF-8"?>
<svg xmlns="http://www.w3.org/2000/svg" xmlns:xlink="http://www.w3.org/1999/xlink" viewBox="0 0 480 480" width="480px" height="480px">
<g id="surface11547205">
<path style=" stroke:none;fill-rule:nonzero;fill:rgb(80.000001%,80.000001%,80.000001%);fill-opacity:1;" d="M 160 160 L 320 160 L 320 320 L 160 320 Z M 160 160 "/>
<path style=" stroke:none;fill-rule:nonzero;fill:rgb(80.000001%,80.000001%,80.000001%);fill-opacity:1;" d="M 50 190 L 480 190 L 430 290 L 0 290 Z M 50 190 "/>
<path style=" stroke:none;fill-rule:nonzero;fill:rgb(0%,0%,0%);fill-opacity:1;" d="M 430 210 L 300 210 L 300 180 L 180 180 L 180 210 L 80 210 L 50 270 L 180 270 L 180 300 L 300 300 L 300 270 L 400 270 Z M 430 210 "/>
<path style=" stroke:none;fill-rule:nonzero;fill:rgb(0%,0%,0%);fill-opacity:1;" d="M 240 300 L 240 180 L 180 180 L 180 210 L 80 210 L 50 270 L 180 270 L 180 300 Z M 240 300 "/>
<path style=" stroke:none;fill-rule:nonzero;fill:rgb(80.000001%,80.000001%,80.000001%);fill-opacity:1;" d="M 160 160 L 180 180 L 180 210 L 160 190 Z M 160 160 "/>
<path style=" stroke:none;fill-rule:nonzero;fill:rgb(80.000001%,80.000001%,80.000001%);fill-opacity:1;" d="M 160 160 L 240 160 L 240 180 L 180 180 Z M 160 160 "/>
<path style=" stroke:none;fill-rule:nonzero;fill:rgb(80.000001%,80.000001%,80.000001%);fill-opacity:1;" d="M 0 290 L 50 270 L 80 210 L 50 190 Z M 0 290 "/>
<path style=" stroke:none;fill-rule:nonzero;fill:rgb(80.000001%,80.000001%,80.000001%);fill-opacity:1;" d="M 50 190 L 80 210 L 180 210 L 160 190 Z M 50 190 "/>
<path style=" stroke:none;fill-rule:nonzero;fill:rgb(80.000001%,80.000001%,80.000001%);fill-opacity:1;" d="M 240 300 L 240 320 L 160 320 L 180 300 Z M 240 300 "/>
<path style=" stroke:none;fill-rule:nonzero;fill:rgb(80.000001%,80.000001%,80.000001%);fill-opacity:1;" d="M 50 270 L 0 290 L 160 290 L 160 320 L 180 300 L 180 270 Z M 50 270 "/>
<path style=" stroke:none;fill-rule:nonzero;fill:rgb(80.000001%,80.000001%,80.000001%);fill-opacity:1;" d="M 320 160 L 300 180 L 300 210 L 320 190 Z M 320 160 "/>
<path style=" stroke:none;fill-rule:nonzero;fill:rgb(80.000001%,80.000001%,80.000001%);fill-opacity:1;" d="M 430 210 L 480 190 L 430 290 L 400 270 Z M 430 210 "/>
<path style=" stroke:none;fill-rule:nonzero;fill:rgb(80.000001%,80.000001%,80.000001%);fill-opacity:1;" d="M 300 270 L 300 300 L 320 320 L 320 290 Z M 300 270 "/>
<path style=" stroke:none;fill-rule:nonzero;fill:rgb(80.000001%,80.000001%,80.000001%);fill-opacity:1;" d="M 300 270 L 320 290 L 430 290 L 400 270 Z M 300 270 "/>
<path style=" stroke:none;fill-rule:nonzero;fill:rgb(80.000001%,80.000001%,80.000001%);fill-opacity:1;" d="M 320 320 L 300 300 L 240 300 L 240 320 Z M 320 320 "/>
<path style=" stroke:none;fill-rule:nonzero;fill:rgb(80.000001%,80.000001%,80.000001%);fill-opacity:1;" d="M 320 190 L 300 210 L 430 210 L 480 190 Z M 320 190 "/>
</g>
</svg>
