<svg xmlns="http://www.w3.org/2000/svg" width="50" height="50" viewBox="0 0 50 50">
  <path id="chat_1_" data-name="chat (1)" d="M24.887,50A24.691,24.691,0,0,1,13.72,47.407a7.446,7.446,0,0,0-3.342-.789,9.023,9.023,0,0,0-5.851,2.674A2.7,2.7,0,0,1,0,47.3V25.232A25.06,25.06,0,0,1,25,0,24.934,24.934,0,0,1,50,25.245,25.023,25.023,0,0,1,24.911,50h-.025Zm-8.745-7.425a19.338,19.338,0,0,0,8.748,2.02,19.713,19.713,0,0,0,19.7-19.4,19.594,19.594,0,1,0-39.188,0c0,.009,0,17.011,0,17.011a12.976,12.976,0,0,1,4.975-.994A12.837,12.837,0,0,1,16.142,42.575Zm19.4-20.818a3.378,3.378,0,1,0,3.378,3.378A3.378,3.378,0,0,0,35.541,21.757Zm-10.676,0a3.378,3.378,0,1,0,3.378,3.378A3.378,3.378,0,0,0,24.865,21.757Zm-10.676,0a3.378,3.378,0,1,0,3.378,3.378A3.378,3.378,0,0,0,14.189,21.757Z"/>
</svg>
