<svg xmlns="http://www.w3.org/2000/svg" width="71.005" height="65.966" viewBox="0 0 71.005 65.966">
  <path id="Trazado_78376" data-name="Trazado 78376" d="M55.353,15a6.2,6.2,0,0,0-3.546,1.2L22.221,38.194A5.361,5.361,0,0,0,20,42.486V75.469a5.719,5.719,0,0,0,5.917,5.5H43.668l.069-2.3c0-6.091,5.278-10.994,11.834-10.994s11.834,4.9,11.834,10.994l-.069,2.3H85.088a5.719,5.719,0,0,0,5.917-5.5V42.486a5.361,5.361,0,0,0-2.221-4.293L59.2,16.2A6.216,6.216,0,0,0,55.353,15Z" transform="translate(-20 -15)" fill-rule="evenodd"/>
</svg>
