<svg xmlns="http://www.w3.org/2000/svg" width="47.888" height="50" viewBox="0 0 47.888 50">
  <g id="bell_2_" data-name="bell (2)" transform="translate(-1.056)">
    <path id="Trazado_78390" data-name="Trazado 78390" d="M359.425,26.7a1.056,1.056,0,0,1-1.056-1.056,11.019,11.019,0,0,0-3.248-7.842,1.056,1.056,0,0,1,1.493-1.493,13.115,13.115,0,0,1,3.867,9.335A1.056,1.056,0,0,1,359.425,26.7Zm0,0" transform="translate(-315.481 -15.203)"/>
    <path id="Trazado_78391" data-name="Trazado 78391" d="M1.056,26.7A1.056,1.056,0,0,1,0,25.64,13.115,13.115,0,0,1,3.866,16.3,1.056,1.056,0,0,1,5.36,17.8,11.017,11.017,0,0,0,2.112,25.64,1.056,1.056,0,0,1,1.056,26.7Zm0,0" transform="translate(6 -15.203)"/>
    <path id="Trazado_78392" data-name="Trazado 78392" d="M67.733,39.6a15.545,15.545,0,0,1-5.7-12V21.074A16.528,16.528,0,0,0,47.67,4.871V2.341a2.4,2.4,0,0,0-4.789,0V4.871a16.526,16.526,0,0,0-14.366,16.2V27.6A15.563,15.563,0,0,1,22.8,39.622a4.053,4.053,0,0,0-1.466,3.112,4.149,4.149,0,0,0,4.19,4.1H65.03a4.149,4.149,0,0,0,4.19-4.1A4.071,4.071,0,0,0,67.733,39.6Zm0,0" transform="translate(-20.276)"/>
    <path id="Trazado_78393" data-name="Trazado 78393" d="M160.169,451.168A3.967,3.967,0,0,0,164.05,448h-7.76A3.967,3.967,0,0,0,160.169,451.168Zm0,0" transform="translate(-135.169 -401.168)"/>
  </g>
</svg>
