<svg xmlns="http://www.w3.org/2000/svg" width="53" height="53" viewBox="0 0 53 53">
  <g id="Icon_feather-search" data-name="Icon feather-search" transform="translate(1.5 1.5)">
    <path id="Trazado_78388" data-name="Trazado 78388" d="M25.854,3A22.784,22.784,0,1,1,4.8,34.68,22.817,22.817,0,0,1,25.854,3Zm0,42.6A19.784,19.784,0,1,0,7.559,18.1,19.817,19.817,0,0,0,25.854,45.6Z" transform="translate(-4.5 -4.5)"/>
    <path id="Trazado_78389" data-name="Trazado 78389" d="M34.794,36.275a1.5,1.5,0,0,1-1.06-.438l-9.819-9.8a1.5,1.5,0,0,1,2.119-2.123l9.819,9.8a1.5,1.5,0,0,1-1.06,2.562Z" transform="translate(15.206 15.225)"/>
  </g>
</svg>
