<svg xmlns="http://www.w3.org/2000/svg" width="124.339" height="90.557" viewBox="0 0 124.339 90.557">
  <g id="streaming" transform="translate(-3.25 -5.25)">
    <path id="Trazado_78382" data-name="Trazado 78382" d="M18.126,88.028A4.828,4.828,0,0,0,19.7,94.99a5.639,5.639,0,0,0,7.469-1.466A74.694,74.694,0,0,0,40.846,50.529,74.695,74.695,0,0,0,27.169,7.534,5.639,5.639,0,0,0,19.7,6.067a4.829,4.829,0,0,0-1.574,6.962,65.115,65.115,0,0,1,11.925,37.5A65.118,65.118,0,0,1,18.126,88.028Z" transform="translate(86.744 0)"/>
    <path id="Trazado_78383" data-name="Trazado 78383" d="M24.4,6.067a4.829,4.829,0,0,1,1.573,6.962,64.923,64.923,0,0,0,0,75A4.828,4.828,0,0,1,24.4,94.99a5.638,5.638,0,0,1-7.469-1.466,74.416,74.416,0,0,1,0-85.99A5.639,5.639,0,0,1,24.4,6.067Z" transform="translate(0 0)"/>
    <path id="Trazado_78384" data-name="Trazado 78384" d="M21.528,9.195a4.815,4.815,0,0,1,1.236,7.021,26.962,26.962,0,0,0,0,33.212,4.815,4.815,0,0,1-1.236,7.021A5.655,5.655,0,0,1,14,55.3a36.475,36.475,0,0,1,0-44.949,5.654,5.654,0,0,1,7.532-1.152Z" transform="translate(18.588 17.124)"/>
    <path id="Trazado_78385" data-name="Trazado 78385" d="M29.039,9.25C18.11,9.25,9.25,17.509,9.25,27.7s8.86,18.447,19.789,18.447S48.828,37.884,48.828,27.7,39.968,9.25,29.039,9.25Z" transform="translate(37.176 22.832)"/>
    <path id="Trazado_78386" data-name="Trazado 78386" d="M16.263,49.427A4.815,4.815,0,0,0,17.5,56.448,5.654,5.654,0,0,0,25.031,55.3a36.683,36.683,0,0,0,7.747-22.475,36.683,36.683,0,0,0-7.747-22.474A5.654,5.654,0,0,0,17.5,9.195a4.815,4.815,0,0,0-1.236,7.021,27.08,27.08,0,0,1,5.721,16.606,27.079,27.079,0,0,1-5.721,16.606Z" transform="translate(74.352 17.124)"/>
  </g>
</svg>
