<svg id="Grupo_16543" data-name="Grupo 16543" xmlns="http://www.w3.org/2000/svg" xmlns:xlink="http://www.w3.org/1999/xlink" width="100" height="100" viewBox="0 0 100 100">
  <defs>
    <radialGradient id="radial-gradient" cx="0.236" cy="0.6" r="0.5" gradientUnits="objectBoundingBox">
      <stop offset="0" stop-color="#fca091"/>
      <stop offset="1" stop-color="#fc7c68"/>
    </radialGradient>
    <radialGradient id="radial-gradient-2" cx="0.236" cy="0.6" r="0.5" gradientUnits="objectBoundingBox">
      <stop offset="0" stop-color="#fca091"/>
      <stop offset="1" stop-color="#fc6868"/>
    </radialGradient>
  </defs>
  <path id="Trazado_78406" data-name="Trazado 78406" d="M506.621,1236.633a55.8,55.8,0,0,1-.79,10.129,27.825,27.825,0,0,1-7.507,16.261,38.773,38.773,0,0,1-9.5,6.842c-2.268,1.242-4.62,2.374-6.934,3.555a3.145,3.145,0,0,1-2.963.059,119.418,119.418,0,0,1-10.722-5.809c-6.928-4.428-11.04-10.288-12.615-17.521a81.971,81.971,0,0,1-1.507-17.736c0-1.24.591-1.752,1.962-1.884a76.917,76.917,0,0,0,8.99-1.746,43.447,43.447,0,0,0,14.042-6.04,2.455,2.455,0,0,1,2.859.143,41.886,41.886,0,0,0,9.574,4.721,70.887,70.887,0,0,0,10.779,2.546c.942.154,1.875.337,2.829.455a1.523,1.523,0,0,1,1.506,1.607C506.609,1233.531,506.621,1234.845,506.621,1236.633Z" transform="translate(-430.374 -1198.085)" fill="url(#radial-gradient)"/>
  <g id="Grupo_16610" data-name="Grupo 16610" transform="translate(2.471 69.664)">
    <path id="Trazado_78409" data-name="Trazado 78409" d="M378.845,1428.572a9.773,9.773,0,0,1,.311-1c1.527-3.737,3.072-7.467,4.6-11.206a8.093,8.093,0,0,1,1.829-2.717q6.233-6.2,12.438-12.432c.95-.949,1.178-.914,1.773.338a37.547,37.547,0,0,0,6.8,10.207c.679.7.367,1.167-.141,1.712q-3.8,4.076-7.578,8.169c-.744.8-1.491,1.609-2.194,2.452a7.241,7.241,0,0,1-3.19,2.154c-3.96,1.456-7.89,3-11.851,4.45C379.979,1431.312,378.749,1430.425,378.845,1428.572Z" transform="translate(-378.84 -1400.557)" fill="url(#radial-gradient-2)"/>
    <path id="Trazado_78410" data-name="Trazado 78410" d="M672.789,1428.966a1.935,1.935,0,0,1-2.713,1.891c-2.8-.983-5.567-2.055-8.347-3.091a3.279,3.279,0,0,0-.462-.2c-3.579-.726-6.191-2.921-8.538-5.644-2.4-2.786-4.93-5.454-7.463-8.114-.788-.828-.806-1.361,0-2.206a36.8,36.8,0,0,0,6.473-9.836c.621-1.321.8-1.352,1.826-.331,4.139,4.1,8.256,8.219,12.431,12.281,1.435,1.4,1.959,3.259,2.714,4.994,1.323,3.04,2.514,6.141,3.751,9.22C672.615,1428.325,672.717,1428.738,672.789,1428.966Z" transform="translate(-578.046 -1400.679)" fill="url(#radial-gradient-2)"/>
  </g>
  <g id="Grupo_16609" data-name="Grupo 16609">
    <path id="Trazado_78407" data-name="Trazado 78407" d="M626.552,1133.63a2.568,2.568,0,0,1,1.738.958c1.975,2.024,3.988,4.009,5.927,6.069.7.746,1.143.667,1.817-.033,3.4-3.529,6.834-7.018,10.265-10.514,1.564-1.593,2.295-1.587,3.869.015q3.063,3.119,6.112,6.25c1.46,1.5,1.456,2.358-.031,3.881-3.42,3.506-6.836,7.018-10.287,10.493-.679.682-.78,1.124-.031,1.854,1.964,1.912,3.868,3.892,5.756,5.882,1.5,1.578,1.464,2.329-.04,3.878-1,1.031-2,2.063-3.013,3.077-1.58,1.579-2.28,1.575-3.877-.039-1.93-1.952-3.855-3.908-5.752-5.892-.53-.555-.99-.8-1.516-.068-1.017,1.417-2.223,1.517-3.922,1.237a66.474,66.474,0,0,1-12.21-3.179c-1.175-.433-1.287-.753-.4-1.651,1.986-2.012,4.013-3.984,6.008-5.986,1.3-1.311,1.295-1.324.041-2.606-1.86-1.9-3.727-3.8-5.578-5.708-1.206-1.245-1.211-2.131,0-3.4s2.412-2.484,3.637-3.707A2.336,2.336,0,0,1,626.552,1133.63Z" transform="translate(-557.37 -1128.918)" fill="url(#radial-gradient-2)"/>
    <path id="Trazado_78408" data-name="Trazado 78408" d="M390.825,1160.941c-.85-.044-1.293-.8-1.809-1.377-.627-.7-1.061-.711-1.719-.01-1.879,2-3.817,3.951-5.75,5.9-1.538,1.551-2.258,1.552-3.791.025-1.137-1.133-2.264-2.277-3.365-3.447a2.068,2.068,0,0,1,.032-3.328c1.916-1.966,3.8-3.973,5.784-5.859.953-.9.867-1.439-.028-2.326-3.388-3.361-6.7-6.8-10.035-10.218-1.543-1.582-1.547-2.406-.02-3.975q3.138-3.225,6.3-6.43c1.286-1.3,2.138-1.3,3.421.006q5.114,5.193,10.2,10.414c1.2,1.222,1.206,1.232,2.447-.025,1.84-1.862,3.661-3.744,5.5-5.609,1.369-1.392,2.12-1.411,3.5-.051q1.8,1.782,3.543,3.626c1.093,1.165,1.081,2.071-.021,3.213-1.937,2.006-3.866,4.022-5.858,5.97-.818.8-.874,1.36-.025,2.189,2.055,2,4.04,4.084,6.036,6.151.814.844.716,1.219-.339,1.634a66.1,66.1,0,0,1-13.681,3.485C391.055,1160.912,390.972,1160.92,390.825,1160.941Z" transform="translate(-368.982 -1128.923)" fill="url(#radial-gradient-2)"/>
  </g>
</svg>
