<svg id="Grupo_16546" data-name="Grupo 16546" xmlns="http://www.w3.org/2000/svg" xmlns:xlink="http://www.w3.org/1999/xlink" width="100" height="100" viewBox="0 0 100 100">
  <defs>
    <linearGradient id="linear-gradient" x1="0.5" x2="0.5" y2="1" gradientUnits="objectBoundingBox">
      <stop offset="0" stop-color="#3affe1"/>
      <stop offset="1" stop-color="#8199ff"/>
    </linearGradient>
  </defs>
  <g id="Grupo_16548" data-name="Grupo 16548">
    <path id="Trazado_78415" data-name="Trazado 78415" d="M274.242,122.14l-63.855,15.384a4,4,0,0,0-3.278,3.7v52.139a20.271,20.271,0,0,0-9.036-2.139c-9.967,0-18.072,6.9-18.072,15.384s8.105,15.384,18.072,15.384,18.072-6.9,18.072-15.384v-47.1l54.819-13.187v31.654a20.27,20.27,0,0,0-9.036-2.139c-9.967,0-18.072,6.9-18.072,15.384s8.105,15.384,18.072,15.384S280,199.707,280,191.223V125.839C280,123.3,277.142,121.442,274.242,122.14Z" transform="translate(-180 -121.991)" fill="url(#linear-gradient)"/>
  </g>
</svg>
