<svg xmlns="http://www.w3.org/2000/svg" xmlns:xlink="http://www.w3.org/1999/xlink" width="100" height="100" viewBox="0 0 100 100">
  <defs>
    <linearGradient id="linear-gradient" x1="0.5" y1="1" x2="0.5" gradientUnits="objectBoundingBox">
      <stop offset="0" stop-color="#a93aff"/>
      <stop offset="1" stop-color="#ff81ff"/>
    </linearGradient>
  </defs>
  <g id="Grupo_16613" data-name="Grupo 16613" transform="translate(-676 262.995)">
    <g id="Grupo_16612" data-name="Grupo 16612" transform="translate(-44.454 25.13)">
      <g id="Grupo_16550" data-name="Grupo 16550" transform="translate(720.454 -288.125)">
        <g id="Grupo_16549" data-name="Grupo 16549" transform="translate(0)">
          <path id="Trazado_78416" data-name="Trazado 78416" d="M50,59.372l-5.859-5.867L35.352,64.536l5.859,18.385H47.07L50,73.729l2.93,9.193h5.859l5.859-18.385L55.859,53.505ZM32.422,60.859a7.749,7.749,0,0,1-4.835-1.8,2.512,2.512,0,0,0-3.622.521L11.032,75.813H8.789C3.943,75.813,0,80.761,0,86.844c0,4.97,2.632,9.182,6.237,10.557,1.1,4.525,4.452,7.828,8.411,7.828,4.846,0,8.789-4.948,8.789-11.031V91.39L34.9,77.072a4.4,4.4,0,0,0,.6-4.126,3.191,3.191,0,0,1-.149-1.056V64.536c0-2.032-1.31-3.677-2.93-3.677ZM68,11.147A17.444,17.444,0,0,1,74.96,19.88a3.1,3.1,0,0,0,2.154,2.025c.977.2-10.883-14.637-10.726-13.463A3.7,3.7,0,0,0,68,11.147ZM91.211,75.813H88.968L76.035,59.584a2.51,2.51,0,0,0-3.622-.521,7.749,7.749,0,0,1-4.835,1.8c-1.619,0-2.93,1.645-2.93,3.677V71.89a3.192,3.192,0,0,1-.149,1.056,4.4,4.4,0,0,0,.6,4.126L76.562,91.39V94.2c0,6.083,3.943,11.031,8.789,11.031,3.96,0,7.316-3.3,8.411-7.828,3.6-1.375,6.237-5.587,6.237-10.557C100,80.761,96.057,75.813,91.211,75.813ZM20.325,20.871a2.585,2.585,0,0,0,2.561,1.034A3.1,3.1,0,0,0,25.04,19.88,17.444,17.444,0,0,1,32,11.147a3.7,3.7,0,0,0,1.614-2.7,4.3,4.3,0,0,0-.824-3.214ZM26.562,35.12c0,8.112,5.259,14.708,11.719,14.708S50,43.232,50,35.12,44.741,20.411,38.281,20.411,26.562,27.008,26.562,35.12ZM61.719,49.828c6.46,0,11.719-6.6,11.719-14.708S68.179,20.411,61.719,20.411,50,27.008,50,35.12,55.259,49.828,61.719,49.828Z" transform="translate(0 -5.229)" fill="#ffbef9"/>
        </g>
      </g>
      <g id="Grupo_16552" data-name="Grupo 16552" transform="translate(738.228 -288.125)">
        <g id="Grupo_16551" data-name="Grupo 16551">
          <path id="Trazado_78417" data-name="Trazado 78417" d="M153.46,105.181a23.466,23.466,0,0,0-9.726-11.758A18.238,18.238,0,0,0,134.945,91H111.508a18.632,18.632,0,0,0-8.848,2.423,23.542,23.542,0,0,0-9.668,11.829A30.706,30.706,0,0,0,91,115.941v21.378c0,6.057,2.461,11.615,6.738,14.964a12.972,12.972,0,0,0,4.98,2.494V158.7a11.033,11.033,0,0,0,.586,3.706c1.289,4.275,4.512,6.983,8.2,6.983h2.93V151.57c0-2,1.289-3.563,2.93-3.563s2.93,1.567,2.93,3.563v17.815h5.859V151.57c0-2,1.289-3.563,2.93-3.563s2.93,1.567,2.93,3.563v17.815h2.93c3.691,0,6.914-2.708,8.145-6.7a12.481,12.481,0,0,0,.645-3.991v-3.919a13.63,13.63,0,0,0,5.039-2.494c4.219-3.349,6.68-8.907,6.68-14.964V115.941A31.4,31.4,0,0,0,153.46,105.181Zm-41.952,28.575c-4.847,0-8.789-4.795-8.789-10.689s3.943-10.689,8.789-10.689,8.789,4.795,8.789,10.689S116.354,133.755,111.508,133.755Zm23.437,0c-4.846,0-8.789-4.795-8.789-10.689s3.943-10.689,8.789-10.689,8.789,4.795,8.789,10.689S139.792,133.755,134.945,133.755Z" transform="translate(-91 -91)" fill="url(#linear-gradient)"/>
        </g>
      </g>
    </g>
  </g>
</svg>
