<svg xmlns="http://www.w3.org/2000/svg" width="392" height="120" viewBox="0 0 392 120">
  <path id="Sustracción_4" data-name="Sustracción 4" d="M-300,66.113H-660a15.9,15.9,0,0,1-11.314-4.686A15.9,15.9,0,0,1-676,50.113V48.721a5.951,5.951,0,0,1,4.964-5.368H-615a19.889,19.889,0,0,0,7.785-1.571,19.947,19.947,0,0,0,6.357-4.287,19.949,19.949,0,0,0,4.287-6.357A19.891,19.891,0,0,0-595,23.354v-63.26a15.455,15.455,0,0,1,1.732-6.569,13.135,13.135,0,0,1,3.944-4.6,16.206,16.206,0,0,1,7.579-2.81H-300A15.9,15.9,0,0,1-288.686-49.2,15.9,15.9,0,0,1-284-37.887v88a15.9,15.9,0,0,1-4.686,11.314A15.9,15.9,0,0,1-300,66.113Z" transform="translate(676 53.887)"/>
</svg>
