<svg xmlns="http://www.w3.org/2000/svg" width="414" height="181.114" viewBox="0 0 414 181.114">
  <path id="Sustracción_1" data-name="Sustracción 1" d="M-287,126.069H-651a24.845,24.845,0,0,1-9.731-1.965,24.912,24.912,0,0,1-7.947-5.358,24.914,24.914,0,0,1-5.358-7.947A24.845,24.845,0,0,1-676,101.069V-30.046a24.843,24.843,0,0,1,1.965-9.731,24.912,24.912,0,0,1,5.358-7.946,24.916,24.916,0,0,1,7.947-5.357A24.845,24.845,0,0,1-651-55.045h138.032c2.12,1.877,4.391,3.654,5.325,4.333l34.178,24.857a2.931,2.931,0,0,0,1.734.564A2.931,2.931,0,0,0-470-25.855l34.178-24.857c.942-.685,3.326-2.472,5.606-4.333H-287a24.844,24.844,0,0,1,9.731,1.965,24.917,24.917,0,0,1,7.947,5.357,24.914,24.914,0,0,1,5.358,7.946A24.841,24.841,0,0,1-262-30.046V101.069a24.843,24.843,0,0,1-1.965,9.731,24.915,24.915,0,0,1-5.358,7.947,24.913,24.913,0,0,1-7.947,5.358A24.844,24.844,0,0,1-287,126.069Z" transform="translate(676 55.045)"/>
</svg>
