<svg xmlns="http://www.w3.org/2000/svg" width="414" height="156" viewBox="0 0 414 156">
  <g id="Grupo_16614" data-name="Grupo 16614" transform="translate(0 -146)">
    <path id="Rectángulo_5" data-name="Rectángulo 5" d="M0,0H414a0,0,0,0,1,0,0V106a50,50,0,0,1-50,50H50A50,50,0,0,1,0,106V0A0,0,0,0,1,0,0Z" transform="translate(0 146)" fill="#fff" opacity="0.083"/>
    <path id="Línea_1" data-name="Línea 1" d="M34,2H0A2,2,0,0,1-2,0,2,2,0,0,1,0-2H34a2,2,0,0,1,2,2A2,2,0,0,1,34,2Z" transform="translate(190 287.5)" fill="#fff" opacity="0.116"/>
  </g>
</svg>
