<svg xmlns="http://www.w3.org/2000/svg" width="90" height="90" viewBox="0 0 90 90">
  <path id="Icon_awesome-bell" data-name="Icon awesome-bell" d="M45,90c7.1,0,12.851-5.036,12.851-11.25h-25.7C32.149,84.964,37.9,90,45,90ZM88.27,63.684c-3.881-3.649-11.144-9.139-11.144-27.121,0-13.658-10.945-24.592-25.7-27.274V5.625C51.424,2.519,48.548,0,45,0s-6.425,2.519-6.425,5.625V9.288c-14.758,2.682-25.7,13.616-25.7,27.274,0,17.982-7.262,23.472-11.143,27.121A5.138,5.138,0,0,0,0,67.5c.022,2.883,2.608,5.625,6.449,5.625h77.1c3.841,0,6.429-2.742,6.449-5.625a5.135,5.135,0,0,0-1.73-3.816Z"/>
</svg>
