<svg xmlns="http://www.w3.org/2000/svg" width="90" height="90" viewBox="0 0 90 90">
  <g id="Grupo_13856" data-name="Grupo 13856" transform="translate(-5 -5)">
    <circle id="Elipse_508" data-name="Elipse 508" cx="1" cy="1" r="1" transform="translate(39.122 34.633)"/>
    <circle id="Elipse_509" data-name="Elipse 509" cx="1" cy="1" r="1" transform="translate(57.98 63.367)"/>
    <path id="Trazado_3182" data-name="Trazado 3182" d="M50,5A45,45,0,1,0,95,50,44.94,44.94,0,0,0,50,5ZM33,36.5A8.5,8.5,0,1,1,41.5,45,8.493,8.493,0,0,1,33,36.5Zm6.1,30.7a2.088,2.088,0,0,1-1.6.8,1.922,1.922,0,0,1-1.2-.4,2.046,2.046,0,0,1-.4-2.8l25.9-34A2,2,0,0,1,65,33.2ZM58.5,71A8.5,8.5,0,1,1,67,62.5,8.493,8.493,0,0,1,58.5,71Z" transform="translate(0 0)"/>
  </g>
</svg>
