<svg xmlns="http://www.w3.org/2000/svg" width="75.345" height="90.32" viewBox="0 0 75.345 90.32">
  <path id="Trazado_3229" data-name="Trazado 3229" d="M90.522,34.584H78.788V28.031c0-10.7-9.758-19.331-21.615-19.331S35.557,17.328,35.557,28.031v6.553H23.823A4.147,4.147,0,0,0,19.5,38.406V76.631c0,12.341,11.364,22.389,25.321,22.389h24.7c13.957,0,25.321-10.048,25.321-22.389V38.406A4.073,4.073,0,0,0,90.522,34.584ZM41.733,27.922c0-7.645,6.917-13.87,15.44-13.87s15.44,6.225,15.44,13.87v6.553H41.733Z" transform="translate(-19.5 -8.7)"/>
</svg>
