<svg xmlns="http://www.w3.org/2000/svg" width="74.86" height="93.874" viewBox="0 0 74.86 93.874">
  <g id="Grupo_13854" data-name="Grupo 13854" transform="translate(0.257 0.25)">
    <g id="Grupo_10" data-name="Grupo 10" transform="translate(0)">
      <path id="Trazado_16" data-name="Trazado 16" d="M127.321,77l-4.187-52.544a6.583,6.583,0,0,0-6.545-6.037h-8.271v-.37a18.125,18.125,0,0,0-36.25,0v.37H63.8a6.581,6.581,0,0,0-6.545,6.03L53.064,77.007A15.23,15.23,0,0,0,68.287,93.374H112.1A15.23,15.23,0,0,0,127.321,77ZM77.561,18.049a12.633,12.633,0,0,1,25.265,0v.37H77.561Zm41.71,66.736A9.694,9.694,0,0,1,112.1,87.9H68.287A9.751,9.751,0,0,1,58.54,77.433l4.188-52.558a1.075,1.075,0,0,1,1.069-.986h8.271v6.736a2.746,2.746,0,0,0,5.492,0V23.889h25.265v6.736a2.746,2.746,0,0,0,5.492,0V23.889h8.271a1.077,1.077,0,0,1,1.07.993l4.187,52.544A9.611,9.611,0,0,1,119.271,84.785Z" transform="translate(-53.02)" stroke="#fff" stroke-width="0.5"/>
    </g>
  </g>
</svg>
