<?xml version="1.0" encoding="iso-8859-1"?>
<!-- Generator: Adobe Illustrator 16.0.0, SVG Export Plug-In . SVG Version: 6.00 Build 0)  -->
<!DOCTYPE svg PUBLIC "-//W3C//DTD SVG 1.1//EN" "http://www.w3.org/Graphics/SVG/1.1/DTD/svg11.dtd">
<svg version="1.1" id="Capa_1" xmlns="http://www.w3.org/2000/svg" xmlns:xlink="http://www.w3.org/1999/xlink" x="0px" y="0px"
	 width="29.683px" height="29.682px" viewBox="0 0 29.683 29.682" style="enable-background:new 0 0 29.683 29.682;"
	 xml:space="preserve">
<g>
	<g>
		<path d="M27.709,23.226c1.279-2.223,1.974-4.743,1.974-7.376c0-5.449-2.96-10.208-7.349-12.789
			c-0.026-0.02-0.044-0.048-0.073-0.064c-0.022-0.014-0.05-0.013-0.073-0.024C20.02,1.731,17.515,1.01,14.842,1.01
			S9.665,1.731,7.498,2.971C7.473,2.984,7.446,2.984,7.422,2.998c-0.03,0.017-0.048,0.047-0.075,0.066
			C5.164,4.347,3.342,6.168,2.057,8.35C2.037,8.379,2.008,8.396,1.99,8.427C1.976,8.452,1.976,8.48,1.965,8.504
			c-1.24,2.165-1.96,4.663-1.962,7.331C0.003,15.839,0,15.843,0,15.849c0,0.005,0.002,0.009,0.003,0.015
			c0.002,2.625,0.693,5.138,1.966,7.354c0.009,0.018,0.009,0.037,0.019,0.055c0.019,0.03,0.043,0.053,0.063,0.082
			c0.633,1.076,1.394,2.086,2.299,2.992c0.215,0.215,0.496,0.322,0.777,0.322c0.281,0,0.563-0.107,0.777-0.322
			c0.43-0.43,0.43-1.125,0-1.555c-0.527-0.527-0.993-1.1-1.412-1.695l1.838-1.061c0.525-0.303,0.707-0.975,0.403-1.5
			c-0.302-0.525-0.975-0.707-1.501-0.403l-1.839,1.062c-0.62-1.328-1.012-2.756-1.139-4.242l2.123,0.002c0.001,0,0.001,0,0.001,0
			c0.606,0,1.1-0.492,1.1-1.1c0-0.606-0.492-1.101-1.099-1.101l-2.123-0.001c0.13-1.505,0.529-2.931,1.142-4.239l1.831,1.059
			c0.174,0.101,0.362,0.148,0.55,0.148c0.38,0,0.749-0.196,0.952-0.549c0.305-0.526,0.124-1.198-0.4-1.502L4.497,8.608
			C5.344,7.402,6.394,6.351,7.6,5.504l1.059,1.835c0.204,0.352,0.573,0.549,0.953,0.549c0.186,0,0.375-0.047,0.549-0.146
			c0.524-0.303,0.706-0.977,0.402-1.502L9.505,4.406c1.309-0.612,2.734-1.012,4.238-1.142v2.123c0,0.607,0.492,1.1,1.1,1.1
			s1.1-0.492,1.1-1.1V3.264c1.504,0.13,2.928,0.529,4.236,1.142l-1.06,1.835c-0.305,0.526-0.125,1.198,0.402,1.502
			c0.172,0.1,0.36,0.147,0.549,0.147c0.379,0,0.748-0.197,0.953-0.55l1.061-1.837c2.979,2.09,5.014,5.426,5.345,9.247h-2.125
			c-0.606,0-1.101,0.492-1.101,1.1c0,0.608,0.492,1.1,1.101,1.1h2.128c-0.127,1.485-0.52,2.914-1.14,4.242l-1.841-1.062
			c-0.524-0.303-1.197-0.124-1.502,0.402c-0.303,0.525-0.123,1.197,0.402,1.502l1.842,1.062c-0.414,0.589-0.871,1.152-1.39,1.672
			c-0.428,0.431-0.426,1.126,0.005,1.556c0.43,0.429,1.127,0.426,1.555-0.006c0.898-0.901,1.651-1.908,2.281-2.98
			c0.016-0.021,0.036-0.04,0.051-0.064C27.703,23.256,27.701,23.241,27.709,23.226z"/>
		<path d="M16.124,14.07c-0.362-0.261-0.804-0.419-1.282-0.419c-1.212,0-2.198,0.986-2.198,2.198s0.986,2.198,2.198,2.198
			s2.199-0.984,2.199-2.197c0-0.074-0.016-0.146-0.021-0.217l7.344-5.28L16.124,14.07z M14.438,14.833l-0.049,0.021
			C14.405,14.847,14.42,14.838,14.438,14.833z M13.742,15.85c0-0.404,0.23-0.744,0.558-0.936l1.083,1.871
			c-0.162,0.095-0.34,0.164-0.541,0.164C14.236,16.95,13.742,16.457,13.742,15.85z"/>
		<path d="M20.338,24.274H9.345c-0.604,0-1.1,0.496-1.1,1.101v2.198c0,0.604,0.495,1.1,1.1,1.1h10.993c0.604,0,1.1-0.495,1.1-1.1
			v-2.198C21.438,24.77,20.941,24.274,20.338,24.274z"/>
	</g>
</g>
<g>
</g>
<g>
</g>
<g>
</g>
<g>
</g>
<g>
</g>
<g>
</g>
<g>
</g>
<g>
</g>
<g>
</g>
<g>
</g>
<g>
</g>
<g>
</g>
<g>
</g>
<g>
</g>
<g>
</g>
</svg>
