<?xml version="1.0"?>
<svg xmlns="http://www.w3.org/2000/svg" viewBox="0 0 512 512" width="512" height="512"><g id="outline"><path d="M296,88a198.449,198.449,0,0,0-128,46.317V130a18.021,18.021,0,0,0-18-18h-.234l-4.74-14.219A19.974,19.974,0,0,1,144,91.456V56a40,40,0,0,0-80,0V91.456a19.974,19.974,0,0,1-1.026,6.325L58.234,112H58a18.021,18.021,0,0,0-18,18v46a8,8,0,0,0-8,8v32a8,8,0,0,0,8,8h8v8a8.039,8.039,0,0,1-3.2,6.4L32,248a40.191,40.191,0,0,0-16,32V462a34.038,34.038,0,0,0,34,34H158a34.038,34.038,0,0,0,34-34v-3.132A198.542,198.542,0,0,0,296,488c110.28,0,200-89.72,200-200S406.28,88,296,88ZM78.152,102.84A35.925,35.925,0,0,0,80,91.456V56a24,24,0,0,1,48,0V91.456a35.925,35.925,0,0,0,1.848,11.384L132.9,112H75.1ZM56,130a2,2,0,0,1,2-2h92a2,2,0,0,1,2,2v46H136V144H120v32h-8V144H96v32H88V144H72v32H56Zm-8,62H160v16H48ZM176,462a18.021,18.021,0,0,1-18,18H50a18.021,18.021,0,0,1-18-18V424H176Zm0-54H32V312H176Zm0-112H32V280H56a8,8,0,0,0,0-16H38.132a23.745,23.745,0,0,1,3.468-3.2l12.8-9.6A24.116,24.116,0,0,0,64,232v-8h80v8a24.116,24.116,0,0,0,9.6,19.2l12.8,9.6A24.116,24.116,0,0,1,176,280ZM296,472a182.653,182.653,0,0,1-104-32.193V350.328a175.226,175.226,0,0,0,44.707,9.238,97.76,97.76,0,0,0-25.457,31.921l-2.467,4.935a8,8,0,0,0,8.471,11.469l15.057-2.51a98,98,0,0,0,59.154-33.916l4.474-5.369V432a8,8,0,0,0,16,0V366.023l4.535,5.442a98.007,98.007,0,0,0,59.153,33.916l15.058,2.51a8,8,0,0,0,8.471-11.469l-2.468-4.935a97.774,97.774,0,0,0-25.451-31.917,174.887,174.887,0,0,0,58.244-14.585l21.768-9.674a8,8,0,0,0-.95-14.974l-7.711-2.313a175.628,175.628,0,0,0-79.315-4.88A241.745,241.745,0,0,0,416.5,226.3l7.051-20.067a8,8,0,0,0-11.563-9.572l-2.419,1.4a241.4,241.4,0,0,0-74.018,66.645,222.778,222.778,0,0,0-24.513-116.4A7.917,7.917,0,0,0,303.873,144a8,8,0,0,0-7.089,4.422,231.767,231.767,0,0,0-24.012,116.809,241.347,241.347,0,0,0-74.4-67.172l-2.418-1.4a8,8,0,0,0-11.563,9.572l7.051,20.067a241.751,241.751,0,0,0,53.177,86.8A174.585,174.585,0,0,0,192,312.261V280a40.191,40.191,0,0,0-16-32l-12.8-9.6A8.039,8.039,0,0,1,160,232v-8h8a8,8,0,0,0,8-8V184a8,8,0,0,0-8-8V155.833A182.709,182.709,0,0,1,296,104c101.458,0,184,82.542,184,184S397.458,472,296,472ZM279.21,323.067A225.763,225.763,0,0,1,207.127,222.65a225.4,225.4,0,0,1,72,83.836,8,8,0,0,0,14.946-5.4,215.811,215.811,0,0,1,10-129.945,209.544,209.544,0,0,1,10.014,129.477,8,8,0,0,0,14.932,5.447,225.445,225.445,0,0,1,71.791-83.413,225.8,225.8,0,0,1-72.083,100.416,8,8,0,0,0,7.791,13.752,159.817,159.817,0,0,1,87.578-6.951l-1.115.5a158.931,158.931,0,0,1-81.443,12.764,8,8,0,0,0-3.667,15.444,81.7,81.7,0,0,1,39.089,30.8,82.007,82.007,0,0,1-48.2-28.151L313.6,343.028l-3.563-4.2a8,8,0,0,0-6.1-2.826H303.9a8,8,0,0,0-6.112,2.878l-18.62,22.344a82,82,0,0,1-48.2,28.151,81.7,81.7,0,0,1,39.089-30.8,8,8,0,0,0-3.667-15.444,159.156,159.156,0,0,1-74.4-9.837v-4.863a158.688,158.688,0,0,1,79.419,8.391,8,8,0,0,0,7.791-13.752Z"/><path d="M104,264H88a8,8,0,0,0,0,16h16a8,8,0,0,0,0-16Z"/><path d="M104,392a26,26,0,0,0,20.8-41.6l-14.4-19.2a8,8,0,0,0-12.8,0L83.2,350.4A26,26,0,0,0,104,392Zm-8-32,8-10.667L112,360a10,10,0,1,1-16,0Z"/></g></svg>
