<?xml version="1.0" standalone="no"?>
<!DOCTYPE svg PUBLIC "-//W3C//DTD SVG 20010904//EN"
 "http://www.w3.org/TR/2001/REC-SVG-20010904/DTD/svg10.dtd">
<svg version="1.0" xmlns="http://www.w3.org/2000/svg"
 width="512.000000pt" height="512.000000pt" viewBox="0 0 512.000000 512.000000"
 preserveAspectRatio="xMidYMid meet">
<metadata>
Created by potrace 1.16, written by Peter Selinger 2001-2019
</metadata>
<g transform="translate(0.000000,512.000000) scale(0.100000,-0.100000)"
fill="#000000" stroke="none">
<path d="M2336 5104 c-60 -19 -89 -36 -141 -84 -30 -28 -62 -44 -130 -65 -361
-109 -631 -367 -754 -719 -42 -119 -61 -235 -61 -373 l0 -114 -42 -50 -41 -49
-151 0 c-132 0 -155 -3 -183 -20 -57 -35 -63 -58 -63 -263 0 -169 2 -186 20
-210 25 -32 25 -51 -1 -86 -19 -26 -20 -39 -17 -199 3 -166 4 -171 28 -198 42
-45 77 -54 219 -54 l130 0 15 -28 c43 -84 188 -201 294 -238 60 -22 55 -10 78
-184 21 -169 47 -268 98 -376 87 -184 210 -325 374 -428 l93 -59 -3 -125 -3
-125 -385 -83 c-212 -45 -416 -94 -454 -108 -103 -39 -183 -92 -266 -176 -150
-151 -219 -324 -220 -547 0 -98 1 -102 26 -122 33 -26 65 -27 95 -2 21 17 24
30 30 142 8 137 17 176 61 264 65 129 163 226 292 286 52 25 405 111 534 130
19 3 26 -4 45 -51 69 -168 224 -312 409 -378 67 -23 89 -26 266 -30 155 -3
207 -1 268 13 217 48 415 226 487 437 5 15 12 15 92 -3 77 -17 89 -18 114 -4
47 24 55 69 19 109 -20 22 -53 32 -253 74 l-230 49 -3 129 -2 129 87 55 c158
98 282 241 369 424 51 108 77 207 98 376 23 176 17 163 82 185 102 34 247 153
290 238 l15 27 130 0 c142 0 177 9 219 54 24 27 25 32 28 198 3 160 2 173 -17
199 -26 35 -26 54 -1 86 18 24 20 41 20 212 0 273 -7 281 -249 281 l-149 0
-40 48 -39 47 -6 155 c-10 302 -106 531 -311 747 -147 155 -296 246 -501 308
-70 22 -99 36 -130 66 -22 21 -67 51 -100 66 -58 27 -66 28 -245 30 -144 2
-196 -1 -234 -13z m419 -153 c78 -36 115 -101 115 -205 0 -78 14 -112 50 -124
32 -11 84 7 94 33 3 9 6 48 6 85 l0 69 38 -13 c136 -48 279 -143 384 -255 83
-88 118 -138 173 -253 55 -114 84 -224 92 -345 l6 -92 -60 24 c-79 32 -169 45
-324 45 l-126 0 -6 56 c-8 79 -49 157 -104 199 -25 19 -52 35 -59 35 -11 0
-14 22 -14 95 0 110 -14 135 -74 135 -56 0 -76 -35 -76 -131 l0 -79 -315 0
-315 0 0 290 c0 311 3 335 53 389 47 51 89 61 262 61 134 0 166 -3 200 -19z
m-665 -441 c0 -246 -2 -300 -14 -300 -7 0 -34 -16 -59 -35 -55 -42 -96 -120
-104 -199 l-6 -56 -126 0 c-155 0 -245 -13 -324 -45 l-60 -24 6 92 c3 51 15
128 26 172 23 87 92 238 142 311 46 68 153 178 223 230 70 53 225 134 294 153
1 1 2 -134 2 -299z m915 -462 c27 -26 37 -44 41 -80 l7 -48 -498 0 -498 0 7
48 c4 36 14 54 41 80 l35 32 415 0 415 0 35 -32z m580 -306 c127 -48 227 -144
277 -270 21 -53 23 -74 26 -324 2 -171 -1 -287 -8 -321 -38 -184 -185 -326
-371 -357 -39 -7 -155 -10 -285 -8 -259 4 -245 -1 -381 130 -118 114 -175 142
-288 142 -113 0 -171 -28 -289 -143 -133 -130 -120 -125 -380 -129 -130 -2
-246 1 -285 8 -183 30 -332 171 -370 348 -17 83 -15 534 4 605 45 173 187 307
356 336 30 5 464 8 994 8 l940 -2 60 -23z m-2501 -299 c-16 -67 -19 -572 -5
-635 l9 -38 -84 0 -84 0 0 109 c0 89 4 117 21 156 24 55 23 120 -4 175 -13 26
-17 62 -17 162 l0 128 89 0 88 0 -13 -57z m3106 -71 c0 -100 -4 -136 -17 -162
-27 -55 -28 -120 -4 -175 17 -39 21 -67 21 -156 l0 -109 -84 0 -84 0 9 38 c14
63 11 568 -5 635 l-13 57 88 0 89 0 0 -128z m-1576 -794 c29 -9 70 -41 147
-114 152 -145 159 -147 452 -152 125 -2 227 -8 227 -12 0 -38 -35 -249 -50
-308 -111 -410 -510 -681 -929 -632 -265 32 -490 170 -632 388 -83 126 -126
267 -154 504 l-6 56 228 4 c293 5 300 7 452 152 129 123 172 142 265 114z
m-259 -1354 c128 -31 340 -21 493 22 l24 7 -4 -135 c-3 -130 -4 -136 -33 -183
-22 -36 -45 -57 -84 -77 -51 -27 -60 -28 -191 -28 -131 0 -140 1 -191 28 -39
20 -62 41 -84 77 -29 46 -30 53 -33 183 -3 126 -2 134 15 128 10 -3 50 -13 88
-22z m-197 -369 c38 -63 97 -115 168 -147 45 -21 63 -23 234 -23 171 0 189 2
234 23 86 39 132 84 201 200 2 3 139 -28 143 -33 2 -2 -11 -32 -29 -67 -65
-122 -187 -220 -328 -262 -74 -22 -352 -22 -434 -1 -142 37 -274 141 -336 264
-18 35 -31 65 -29 67 4 3 116 31 133 33 6 0 25 -24 43 -54z"/>
<path d="M1607 3610 c-89 -23 -169 -86 -209 -169 -22 -44 -23 -55 -23 -326 0
-275 0 -281 24 -329 32 -64 82 -113 150 -145 54 -25 64 -26 269 -29 118 -2
225 -1 239 3 14 3 67 46 117 94 141 136 227 175 381 175 154 0 240 -39 381
-175 50 -48 103 -91 117 -94 14 -4 121 -5 239 -3 205 3 215 4 269 29 66 31
120 84 151 148 22 45 23 55 23 326 0 271 -1 281 -23 326 -31 64 -85 117 -151
148 l-56 26 -687 0 -687 0 -22 -22 c-27 -27 -29 -75 -4 -103 17 -19 34 -20
701 -22 672 -3 683 -3 710 -24 69 -51 69 -51 72 -323 3 -243 3 -247 -20 -280
-49 -73 -58 -76 -270 -79 l-191 -4 -56 55 c-169 163 -300 221 -496 221 -196 0
-327 -58 -496 -221 l-56 -55 -191 4 c-211 3 -221 6 -269 78 -22 32 -23 40 -23
275 0 235 1 243 23 275 45 66 64 74 208 80 145 6 159 12 159 75 0 57 -26 70
-154 72 -61 1 -128 -2 -149 -7z"/>
<path d="M2363 2358 c-85 -41 -31 -211 86 -270 107 -55 232 -23 298 74 56 84
53 173 -6 198 -53 21 -89 -7 -106 -83 -11 -54 -65 -82 -120 -61 -19 8 -45 55
-45 82 0 47 -63 82 -107 60z"/>
<path d="M2395 1911 c-80 -37 -125 -111 -125 -206 0 -86 43 -154 125 -198 35
-19 56 -22 160 -22 104 0 125 3 160 22 82 44 125 112 125 198 0 95 -45 169
-125 206 -58 27 -262 27 -320 0z m277 -148 c26 -23 24 -84 -3 -109 -18 -16
-37 -19 -114 -19 -109 0 -135 14 -135 73 0 62 19 72 133 72 79 0 104 -3 119
-17z"/>
<path d="M3744 889 c-25 -9 -54 -46 -54 -70 0 -29 38 -65 82 -78 129 -38 268
-147 340 -266 58 -96 79 -173 87 -314 6 -113 9 -125 30 -142 31 -25 62 -24 96
3 l27 21 -5 131 c-3 96 -11 150 -27 201 -46 147 -131 274 -246 369 -104 86
-281 164 -330 145z"/>
</g>
</svg>
